<svg width="21" height="25" viewBox="0 0 21 25" fill="none" xmlns="http://www.w3.org/2000/svg">
    <path d="M0.48918 11.2581C0.230995 9.45081 1.63338 7.83385 3.45903 7.83385H17.5387C19.3644 7.83385 20.7668 9.45081 20.5086 11.2581L19.0326 21.5897C18.8215 23.0676 17.5557 24.1654 16.0628 24.1654H4.93497C3.44202 24.1654 2.17626 23.0676 1.96512 21.5897L0.48918 11.2581Z" fill="#5E6368"/>
    <path fill-rule="evenodd" clip-rule="evenodd" d="M2.33203 5.50077C2.33203 4.85651 2.85431 4.33423 3.49857 4.33423H17.4971C18.1413 4.33423 18.6636 4.85651 18.6636 5.50077C18.6636 6.14503 18.1413 6.66731 17.4971 6.66731H3.49857C2.85431 6.66731 2.33203 6.14503 2.33203 5.50077Z" fill="#5E6368"/>
    <path fill-rule="evenodd" clip-rule="evenodd" d="M4.66602 2.00114C4.66602 1.35687 5.03907 0.834595 5.49926 0.834595H15.4982C15.9584 0.834595 16.3314 1.35687 16.3314 2.00114C16.3314 2.6454 15.9584 3.16768 15.4982 3.16768H5.49926C5.03907 3.16768 4.66602 2.6454 4.66602 2.00114Z" fill="#5E6368"/>
</svg>