<svg width="35" height="35" viewBox="0 0 35 35" fill="none" xmlns="http://www.w3.org/2000/svg">
<circle cx="17.5" cy="17.5" r="17.5" fill="#C4C4C4"/>
<path d="M19.9319 8.44375C19.364 6.51875 16.636 6.51875 16.0681 8.44375L15.9306 8.91125C15.8458 9.19944 15.6975 9.46499 15.4967 9.68842C15.2958 9.91184 15.0475 10.0875 14.77 10.2025C14.4924 10.3174 14.1927 10.3688 13.8927 10.3529C13.5927 10.3369 13.3 10.254 13.0362 10.1102L12.61 9.8765C10.8459 8.91675 8.91675 10.8459 9.87787 12.6086L10.1102 13.0362C10.7235 14.1637 10.1419 15.5676 8.91125 15.9306L8.44375 16.0681C6.51875 16.636 6.51875 19.364 8.44375 19.9319L8.91125 20.0694C9.19944 20.1542 9.46499 20.3025 9.68842 20.5033C9.91184 20.7042 10.0875 20.9525 10.2025 21.23C10.3174 21.5076 10.3688 21.8073 10.3529 22.1073C10.3369 22.4073 10.254 22.7 10.1102 22.9637L9.8765 23.39C8.91675 25.1541 10.8459 27.0833 12.6086 26.1221L13.0362 25.8897C13.3 25.746 13.5927 25.6631 13.8927 25.6471C14.1927 25.6312 14.4924 25.6826 14.77 25.7975C15.0475 25.9125 15.2958 26.0882 15.4967 26.3116C15.6975 26.535 15.8458 26.8006 15.9306 27.0887L16.0681 27.5562C16.636 29.4812 19.364 29.4812 19.9319 27.5562L20.0694 27.0887C20.1542 26.8006 20.3025 26.535 20.5033 26.3116C20.7042 26.0882 20.9525 25.9125 21.23 25.7975C21.5076 25.6826 21.8073 25.6312 22.1073 25.6471C22.4073 25.6631 22.7 25.746 22.9637 25.8897L23.39 26.1235C25.1541 27.0833 27.0833 25.1541 26.1221 23.3914L25.8897 22.9637C25.746 22.7 25.6631 22.4073 25.6471 22.1073C25.6312 21.8073 25.6826 21.5076 25.7975 21.23C25.9125 20.9525 26.0882 20.7042 26.3116 20.5033C26.535 20.3025 26.8006 20.1542 27.0887 20.0694L27.5562 19.9319C29.4812 19.364 29.4812 16.636 27.5562 16.0681L27.0887 15.9306C26.8006 15.8458 26.535 15.6975 26.3116 15.4967C26.0882 15.2958 25.9125 15.0475 25.7975 14.77C25.6826 14.4924 25.6312 14.1927 25.6471 13.8927C25.6631 13.5927 25.746 13.3 25.8897 13.0362L26.1235 12.61C27.0833 10.8459 25.1541 8.91675 23.3914 9.87787L22.9637 10.1102C22.7 10.254 22.4073 10.3369 22.1073 10.3529C21.8073 10.3688 21.5076 10.3174 21.23 10.2025C20.9525 10.0875 20.7042 9.91184 20.5033 9.68842C20.3025 9.46499 20.1542 9.19944 20.0694 8.91125L19.9319 8.44375ZM18 22.0288C16.9315 22.0288 15.9068 21.6043 15.1512 20.8488C14.3957 20.0932 13.9713 19.0685 13.9713 18C13.9713 16.9315 14.3957 15.9068 15.1512 15.1512C15.9068 14.3957 16.9315 13.9713 18 13.9713C19.0681 13.9713 20.0925 14.3956 20.8478 15.1508C21.6031 15.9061 22.0274 16.9305 22.0274 17.9986C22.0274 19.0668 21.6031 20.0911 20.8478 20.8464C20.0925 21.6017 19.0681 22.026 18 22.026V22.0288Z" fill="#213042"/>
</svg>