<svg width="35" height="35" viewBox="0 0 35 35" fill="none" xmlns="http://www.w3.org/2000/svg">
<circle cx="17.5" cy="17.5" r="17.5" fill="#C4C4C4"/>
<path d="M28.8938 23.8368L18.6801 6.38776C18.5278 6.12844 18.2651 6 18 6C17.7349 6 17.4696 6.12844 17.3199 6.38776L7.1062 23.8368C6.80421 24.3554 7.18231 25 7.78629 25H28.2137C28.8177 25 29.1958 24.3554 28.8938 23.8368ZM17.2143 13.1735C17.2143 13.0668 17.3027 12.9796 17.4107 12.9796H18.5893C18.6973 12.9796 18.7857 13.0668 18.7857 13.1735V17.6327C18.7857 17.7393 18.6973 17.8265 18.5893 17.8265H17.4107C17.3027 17.8265 17.2143 17.7393 17.2143 17.6327V13.1735ZM18 21.7041C17.6916 21.6979 17.3979 21.5726 17.1821 21.3551C16.9662 21.1376 16.8453 20.8453 16.8453 20.5409C16.8453 20.2364 16.9662 19.944 17.1821 19.7265C17.3979 19.5091 17.6916 19.3838 18 19.3776C18.3084 19.3838 18.6021 19.5091 18.8179 19.7265C19.0337 19.944 19.1547 20.2364 19.1547 20.5409C19.1547 20.8453 19.0337 21.1376 18.8179 21.3551C18.6021 21.5726 18.3084 21.6979 18 21.7041Z" fill="#213042"/>
</svg>
