<svg width="27" height="24" viewBox="0 0 27 24" fill="none" xmlns="http://www.w3.org/2000/svg">
<path d="M26.1603 22.1639L13.9562 1.04141C13.7743 0.727506 13.4604 0.572021 13.1436 0.572021C12.8268 0.572021 12.5099 0.727506 12.331 1.04141L0.126891 22.1639C-0.23395 22.7917 0.217835 23.572 0.939519 23.572H25.3477C26.0694 23.572 26.5212 22.7917 26.1603 22.1639ZM12.2048 9.2557C12.2048 9.12661 12.3104 9.021 12.4395 9.021H13.8477C13.9768 9.021 14.0824 9.12661 14.0824 9.2557V14.6537C14.0824 14.7827 13.9768 14.8883 13.8477 14.8883H12.4395C12.3104 14.8883 12.2048 14.7827 12.2048 14.6537V9.2557ZM13.1436 19.5822C12.7751 19.5747 12.4242 19.423 12.1663 19.1598C11.9084 18.8965 11.7639 18.5426 11.7639 18.1741C11.7639 17.8055 11.9084 17.4516 12.1663 17.1883C12.4242 16.9251 12.7751 16.7734 13.1436 16.7659C13.5121 16.7734 13.863 16.9251 14.1209 17.1883C14.3788 17.4516 14.5233 17.8055 14.5233 18.1741C14.5233 18.5426 14.3788 18.8965 14.1209 19.1598C13.863 19.423 13.5121 19.5747 13.1436 19.5822Z" fill="#5E6368"/>
</svg>
