<svg width="30" height="30" viewBox="0 0 60 60" fill="none" xmlns="http://www.w3.org/2000/svg">
    <circle cx="30" cy="30" r="30" fill="#C4C4C4"/>
    <path d="M43.7406 42.7487C44.3631 44.6852 42.9187 46.6667 40.8845 46.6667L19.1116 46.6667C17.0775 46.6667 15.6331 44.6852 16.2555 42.7487L21.8279 25.4123C22.2267 24.1717 23.3808 23.3304 24.684 23.3304L35.3122 23.3304C36.6153 23.3304 37.7695 24.1717 38.1682 25.4123L43.7406 42.7487Z" fill="#213042"/>
    <path d="M16.2555 22.2477C15.6331 20.3112 17.0775 18.3297 19.1116 18.3297L40.8845 18.3297C42.9187 18.3297 44.3631 20.3112 43.7406 22.2477L38.1682 39.5841C37.7695 40.8247 36.6153 41.666 35.3122 41.666L24.684 41.666C23.3808 41.666 22.2267 40.8247 21.8279 39.5841L16.2555 22.2477Z" fill="#213042"/>
    <path fill-rule="evenodd" clip-rule="evenodd" d="M18.3299 14.996C18.3299 14.0754 19.0762 13.3291 19.9968 13.3291H39.9994C40.92 13.3291 41.6662 14.0754 41.6662 14.996C41.6662 15.9165 40.92 16.6628 39.9994 16.6628H19.9968C19.0762 16.6628 18.3299 15.9165 18.3299 14.996Z" fill="#213042"/>
</svg>