<svg width="21" height="25" viewBox="0 0 21 25" fill="none" xmlns="http://www.w3.org/2000/svg">
    <path d="M19.7387 20.2474C20.3611 22.184 18.9167 24.1654 16.8826 24.1654L4.11574 24.1654C2.08162 24.1654 0.637196 22.1839 1.25966 20.2474L4.58052 9.91582C4.97931 8.67516 6.13344 7.83385 7.43661 7.83385L13.5617 7.83385C14.8649 7.83385 16.019 8.67516 16.4178 9.91582L19.7387 20.2474Z" fill="#5E6368"/>
    <path d="M1.25937 8.25226C0.636906 6.31571 2.08133 4.33423 4.11545 4.33423L16.8823 4.33423C18.9164 4.33423 20.3609 6.31571 19.7384 8.25226L16.4175 18.5838C16.0187 19.8245 14.8646 20.6658 13.5614 20.6658L7.43632 20.6658C6.13315 20.6658 4.97902 19.8245 4.58024 18.5838L1.25937 8.25226Z" fill="#5E6368"/>
    <path fill-rule="evenodd" clip-rule="evenodd" d="M2.33203 2.00114C2.33203 1.35687 2.85431 0.834595 3.49857 0.834595H17.4971C18.1413 0.834595 18.6636 1.35687 18.6636 2.00114C18.6636 2.6454 18.1413 3.16768 17.4971 3.16768H3.49857C2.85431 3.16768 2.33203 2.6454 2.33203 2.00114Z" fill="#5E6368"/>
</svg>