<svg width="20" height="21" viewBox="0 0 20 21" fill="none" xmlns="http://www.w3.org/2000/svg">
<path fill-rule="evenodd" clip-rule="evenodd" d="M0.43934 11.4433L8.62765 19.6316C9.21343 20.2174 10.1632 20.2174 10.749 19.6316L19.5586 10.822C19.8399 10.5407 19.9979 10.1592 19.9979 9.76136V1.57305C19.9979 0.744626 19.3264 0.0730543 18.4979 0.0730543H10.3096C9.9118 0.0730543 9.53027 0.23109 9.24897 0.512394L0.43934 9.32202C-0.146447 9.90781 -0.146447 10.8576 0.43934 11.4433ZM15.4499 6.18382C16.3305 6.18382 17.0444 5.46996 17.0444 4.58936C17.0444 3.70877 16.3305 2.9949 15.4499 2.9949C14.5693 2.9949 13.8555 3.70877 13.8555 4.58936C13.8555 5.46996 14.5693 6.18382 15.4499 6.18382Z" fill="#5E6368"/>
</svg>
